<mxfile host="65bd71144e">
    <diagram id="nOYcTQ8pHhb9GdXlzklW" name="Page-1">
        <mxGraphModel dx="918" dy="564" grid="1" gridSize="10" guides="1" tooltips="1" connect="1" arrows="1" fold="1" page="1" pageScale="1" pageWidth="850" pageHeight="1100" math="0" shadow="0">
            <root>
                <mxCell id="0"/>
                <mxCell id="1" parent="0"/>
                <mxCell id="2" value="Login" style="shape=mxgraph.uml25.behaviorAction;html=1;rounded=1;absoluteArcSize=1;arcSize=10;align=left;spacingLeft=5;whiteSpace=wrap;" parent="1" vertex="1">
                    <mxGeometry x="230" y="80" width="190" height="60" as="geometry"/>
                </mxCell>
                <mxCell id="3" value="" style="ellipse;" parent="1" vertex="1">
                    <mxGeometry x="310" y="20" width="30" height="30" as="geometry"/>
                </mxCell>
                <mxCell id="4" value="" style="edgeStyle=orthogonalEdgeStyle;html=1;verticalAlign=bottom;endArrow=open;endSize=8;rounded=0;labelBackgroundColor=none;fontColor=default;entryX=0.5;entryY=0.004;entryDx=0;entryDy=0;entryPerimeter=0;exitX=0.5;exitY=1;exitDx=0;exitDy=0;" parent="1" source="3" target="2" edge="1">
                    <mxGeometry relative="1" as="geometry">
                        <mxPoint x="334.5" y="100" as="targetPoint"/>
                        <mxPoint x="334.5" y="40" as="sourcePoint"/>
                        <Array as="points"/>
                    </mxGeometry>
                </mxCell>
                <mxCell id="8" value="Search for the sale" style="rounded=1;whiteSpace=wrap;html=1;arcSize=40;" parent="1" vertex="1">
                    <mxGeometry x="265" y="170" width="120" height="40" as="geometry"/>
                </mxCell>
                <mxCell id="9" value="" style="edgeStyle=orthogonalEdgeStyle;html=1;verticalAlign=bottom;endArrow=open;endSize=8;entryX=0.5;entryY=0;entryDx=0;entryDy=0;" parent="1" source="8" target="12" edge="1">
                    <mxGeometry relative="1" as="geometry">
                        <mxPoint x="325" y="300" as="targetPoint"/>
                    </mxGeometry>
                </mxCell>
                <mxCell id="10" value="" style="edgeStyle=orthogonalEdgeStyle;html=1;verticalAlign=bottom;endArrow=open;endSize=8;exitX=0.495;exitY=1.01;exitDx=0;exitDy=0;exitPerimeter=0;" parent="1" source="2" target="8" edge="1">
                    <mxGeometry relative="1" as="geometry">
                        <mxPoint x="324.64" y="210" as="targetPoint"/>
                        <mxPoint x="324.64" y="150" as="sourcePoint"/>
                    </mxGeometry>
                </mxCell>
                <mxCell id="12" value="" style="rhombus;" parent="1" vertex="1">
                    <mxGeometry x="310" y="250" width="30" height="30" as="geometry"/>
                </mxCell>
                <mxCell id="13" value="Register down payment" style="rounded=1;whiteSpace=wrap;html=1;arcSize=40;" parent="1" vertex="1">
                    <mxGeometry x="145" y="290" width="120" height="40" as="geometry"/>
                </mxCell>
                <mxCell id="14" value="" style="edgeStyle=orthogonalEdgeStyle;html=1;verticalAlign=bottom;endArrow=open;endSize=8;entryX=0.5;entryY=0;entryDx=0;entryDy=0;" parent="1" source="13" target="19" edge="1">
                    <mxGeometry relative="1" as="geometry">
                        <mxPoint x="205" y="460" as="targetPoint"/>
                    </mxGeometry>
                </mxCell>
                <mxCell id="15" value="" style="edgeStyle=orthogonalEdgeStyle;html=1;verticalAlign=bottom;endArrow=open;endSize=8;exitX=0;exitY=0.5;exitDx=0;exitDy=0;entryX=0.5;entryY=0;entryDx=0;entryDy=0;" parent="1" source="12" target="13" edge="1">
                    <mxGeometry relative="1" as="geometry">
                        <mxPoint x="200" y="360" as="targetPoint"/>
                        <mxPoint x="200" y="300" as="sourcePoint"/>
                    </mxGeometry>
                </mxCell>
                <mxCell id="16" value="Register full payment" style="rounded=1;whiteSpace=wrap;html=1;arcSize=40;" parent="1" vertex="1">
                    <mxGeometry x="370" y="290" width="120" height="40" as="geometry"/>
                </mxCell>
                <mxCell id="17" value="" style="edgeStyle=orthogonalEdgeStyle;html=1;verticalAlign=bottom;endArrow=open;endSize=8;entryX=0.5;entryY=0;entryDx=0;entryDy=0;" parent="1" source="16" target="21" edge="1">
                    <mxGeometry relative="1" as="geometry">
                        <mxPoint x="430" y="460" as="targetPoint"/>
                    </mxGeometry>
                </mxCell>
                <mxCell id="18" value="" style="edgeStyle=orthogonalEdgeStyle;html=1;verticalAlign=bottom;endArrow=open;endSize=8;exitX=1;exitY=0.5;exitDx=0;exitDy=0;entryX=0.545;entryY=0.05;entryDx=0;entryDy=0;entryPerimeter=0;" parent="1" source="12" target="16" edge="1">
                    <mxGeometry relative="1" as="geometry">
                        <mxPoint x="430" y="360" as="targetPoint"/>
                        <mxPoint x="429.64" y="300" as="sourcePoint"/>
                    </mxGeometry>
                </mxCell>
                <mxCell id="19" value="Confirme the sale" style="rounded=1;whiteSpace=wrap;html=1;arcSize=40;" parent="1" vertex="1">
                    <mxGeometry x="145" y="360" width="120" height="40" as="geometry"/>
                </mxCell>
                <mxCell id="20" value="" style="edgeStyle=orthogonalEdgeStyle;html=1;verticalAlign=bottom;endArrow=open;endSize=8;entryX=0;entryY=0.5;entryDx=0;entryDy=0;" parent="1" source="19" target="25" edge="1">
                    <mxGeometry relative="1" as="geometry">
                        <mxPoint x="290" y="580" as="targetPoint"/>
                        <Array as="points">
                            <mxPoint x="210" y="455"/>
                        </Array>
                    </mxGeometry>
                </mxCell>
                <mxCell id="21" value="Mark the sale as complete" style="rounded=1;whiteSpace=wrap;html=1;arcSize=40;" parent="1" vertex="1">
                    <mxGeometry x="370" y="370" width="120" height="40" as="geometry"/>
                </mxCell>
                <mxCell id="22" value="" style="edgeStyle=orthogonalEdgeStyle;html=1;verticalAlign=bottom;endArrow=open;endSize=8;entryX=1;entryY=0.5;entryDx=0;entryDy=0;" parent="1" source="21" target="25" edge="1">
                    <mxGeometry relative="1" as="geometry">
                        <mxPoint x="445" y="580" as="targetPoint"/>
                        <Array as="points">
                            <mxPoint x="430" y="455"/>
                        </Array>
                    </mxGeometry>
                </mxCell>
                <mxCell id="23" value="Send ntification email to the clent" style="rounded=1;whiteSpace=wrap;html=1;arcSize=40;" parent="1" vertex="1">
                    <mxGeometry x="265" y="490" width="120" height="40" as="geometry"/>
                </mxCell>
                <mxCell id="25" value="" style="rhombus;" parent="1" vertex="1">
                    <mxGeometry x="310" y="440" width="30" height="30" as="geometry"/>
                </mxCell>
                <mxCell id="27" value="" style="edgeStyle=orthogonalEdgeStyle;html=1;verticalAlign=bottom;endArrow=open;endSize=8;entryX=0.5;entryY=0;entryDx=0;entryDy=0;exitX=0.5;exitY=1;exitDx=0;exitDy=0;" parent="1" source="25" target="23" edge="1">
                    <mxGeometry relative="1" as="geometry">
                        <mxPoint x="334.64" y="640" as="targetPoint"/>
                        <mxPoint x="334.64" y="580" as="sourcePoint"/>
                    </mxGeometry>
                </mxCell>
                <mxCell id="28" value="" style="ellipse;html=1;shape=endState;fillColor=strokeColor;" parent="1" vertex="1">
                    <mxGeometry x="310" y="560" width="30" height="30" as="geometry"/>
                </mxCell>
                <mxCell id="29" value="" style="edgeStyle=orthogonalEdgeStyle;html=1;verticalAlign=bottom;endArrow=open;endSize=8;entryX=0.5;entryY=0;entryDx=0;entryDy=0;exitX=0.5;exitY=1;exitDx=0;exitDy=0;" parent="1" source="23" target="28" edge="1">
                    <mxGeometry relative="1" as="geometry">
                        <mxPoint x="324.64" y="560" as="targetPoint"/>
                        <mxPoint x="324.64" y="540" as="sourcePoint"/>
                    </mxGeometry>
                </mxCell>
            </root>
        </mxGraphModel>
    </diagram>
</mxfile>